<?xml version="1.0" standalone="no"?>
<!DOCTYPE svg PUBLIC "-//W3C//DTD SVG 20010904//EN"
 "http://www.w3.org/TR/2001/REC-SVG-20010904/DTD/svg10.dtd">
<svg version="1.0" xmlns="http://www.w3.org/2000/svg"
 width="300.000000pt" height="300.000000pt" viewBox="0 0 300.000000 300.000000"
 preserveAspectRatio="xMidYMid meet">
<metadata>
Created by potrace 1.14, written by Peter Selinger 2001-2017
</metadata>
<g transform="translate(0.000000,300.000000) scale(0.100000,-0.100000)"
fill="#000000" stroke="none">
<path d="M1340 2900 c-7 -4 -26 -6 -41 -3 -17 2 -29 0 -29 -7 0 -6 -11 -8 -27
-6 -15 3 -32 1 -40 -5 -7 -6 -18 -9 -25 -6 -7 2 -25 -2 -40 -10 -15 -7 -29
-13 -30 -12 -22 14 -360 -139 -409 -185 -14 -13 -30 -25 -36 -27 -46 -17 -281
-253 -306 -306 -6 -13 -13 -23 -17 -23 -4 0 -10 -8 -14 -17 -6 -18 -27 -54
-37 -63 -9 -8 -47 -74 -50 -85 -4 -21 -13 -40 -21 -46 -12 -8 -82 -198 -92
-253 -2 -12 -9 -43 -15 -70 -7 -27 -10 -51 -7 -53 3 -3 0 -17 -6 -32 -5 -14
-12 -69 -14 -121 -6 -105 -6 -103 0 -145 2 -16 7 -55 11 -85 11 -95 12 -103
29 -170 27 -112 66 -224 83 -237 9 -7 14 -15 11 -19 -7 -6 55 -125 89 -170 13
-17 23 -35 23 -40 0 -5 10 -20 23 -34 12 -14 35 -42 51 -64 32 -43 145 -156
156 -156 4 0 23 -18 44 -40 20 -22 43 -40 51 -40 7 0 15 -3 17 -7 6 -15 75
-61 144 -98 38 -20 74 -40 79 -44 6 -4 28 -13 50 -20 42 -13 79 -27 108 -43
10 -5 22 -6 27 -3 6 4 10 2 10 -2 0 -5 8 -9 18 -10 9 -1 49 -8 87 -17 122 -29
331 -40 449 -26 131 17 147 19 158 26 5 4 26 9 46 11 36 5 188 62 272 102 25
12 79 44 120 71 41 28 83 53 92 56 9 3 19 12 22 20 3 8 12 14 21 14 8 0 15 7
15 15 0 8 5 15 11 15 6 0 45 35 88 78 82 82 178 209 232 307 18 33 37 63 42
66 5 3 7 8 6 10 -2 2 9 34 24 71 14 37 29 79 31 93 3 15 10 33 17 41 6 8 9 14
6 14 -4 0 0 18 8 40 8 22 16 63 19 92 3 29 5 53 6 53 12 0 23 330 12 350 -3 5
-7 23 -8 40 -2 46 -13 116 -20 126 -3 5 -7 24 -10 41 -2 17 -8 36 -14 42 -5 5
-10 25 -10 43 0 18 -4 33 -9 33 -9 0 -20 27 -28 70 -2 13 -10 28 -16 32 -7 4
-8 8 -3 8 5 0 1 9 -10 21 -10 12 -18 22 -16 23 6 2 -17 54 -27 60 -6 4 -22 30
-36 59 -14 29 -31 57 -38 62 -7 6 -23 26 -37 45 -47 67 -218 245 -227 237 -2
-2 -24 16 -50 40 -26 23 -53 43 -59 43 -6 0 -19 9 -29 20 -10 11 -24 20 -32
20 -7 0 -13 5 -13 11 0 5 -3 8 -7 6 -5 -2 -21 4 -38 14 -32 20 -73 40 -90 43
-5 1 -25 10 -42 19 -18 10 -35 17 -38 17 -3 0 -21 7 -41 15 -20 8 -40 12 -45
9 -5 -3 -9 -1 -9 4 0 5 -6 9 -12 10 -7 0 -56 10 -108 22 -71 17 -135 23 -256
25 -89 1 -167 -1 -174 -5z"/>
</g>
</svg>
